<mxfile host="Electron" agent="Mozilla/5.0 (Windows NT 10.0; Win64; x64) AppleWebKit/537.36 (KHTML, like Gecko) draw.io/26.0.16 Chrome/132.0.6834.196 Electron/34.2.0 Safari/537.36" version="26.0.16">
  <diagram name="Страница — 1" id="LvXiL-588Zngq-7ohN1H">
    <mxGraphModel dx="1098" dy="828" grid="1" gridSize="10" guides="1" tooltips="1" connect="1" arrows="1" fold="1" page="1" pageScale="1" pageWidth="827" pageHeight="1169" math="0" shadow="0">
      <root>
        <mxCell id="0" />
        <mxCell id="1" parent="0" />
        <mxCell id="AOp4CetzZRwFhSnmkwhI-1" value="&lt;b&gt;Supabase&lt;/b&gt;" style="html=1;dropTarget=0;whiteSpace=wrap;" vertex="1" parent="1">
          <mxGeometry x="234" y="30" width="180" height="90" as="geometry" />
        </mxCell>
        <mxCell id="AOp4CetzZRwFhSnmkwhI-2" value="" style="shape=module;jettyWidth=8;jettyHeight=4;" vertex="1" parent="AOp4CetzZRwFhSnmkwhI-1">
          <mxGeometry x="1" width="20" height="20" relative="1" as="geometry">
            <mxPoint x="-27" y="7" as="offset" />
          </mxGeometry>
        </mxCell>
        <mxCell id="AOp4CetzZRwFhSnmkwhI-23" style="edgeStyle=orthogonalEdgeStyle;rounded=0;orthogonalLoop=1;jettySize=auto;html=1;exitX=0.25;exitY=1;exitDx=0;exitDy=0;entryX=0.5;entryY=0;entryDx=0;entryDy=0;dashed=1;" edge="1" parent="1" source="AOp4CetzZRwFhSnmkwhI-3" target="AOp4CetzZRwFhSnmkwhI-7">
          <mxGeometry relative="1" as="geometry" />
        </mxCell>
        <mxCell id="AOp4CetzZRwFhSnmkwhI-24" style="edgeStyle=orthogonalEdgeStyle;rounded=0;orthogonalLoop=1;jettySize=auto;html=1;entryX=0.5;entryY=1;entryDx=0;entryDy=0;dashed=1;" edge="1" parent="1" source="AOp4CetzZRwFhSnmkwhI-3" target="AOp4CetzZRwFhSnmkwhI-1">
          <mxGeometry relative="1" as="geometry" />
        </mxCell>
        <mxCell id="AOp4CetzZRwFhSnmkwhI-3" value="&lt;b&gt;YMuI&lt;/b&gt;" style="html=1;dropTarget=0;whiteSpace=wrap;" vertex="1" parent="1">
          <mxGeometry x="234" y="250" width="180" height="90" as="geometry" />
        </mxCell>
        <mxCell id="AOp4CetzZRwFhSnmkwhI-4" value="" style="shape=module;jettyWidth=8;jettyHeight=4;" vertex="1" parent="AOp4CetzZRwFhSnmkwhI-3">
          <mxGeometry x="1" width="20" height="20" relative="1" as="geometry">
            <mxPoint x="-27" y="7" as="offset" />
          </mxGeometry>
        </mxCell>
        <mxCell id="AOp4CetzZRwFhSnmkwhI-5" value="&lt;b&gt;Android Studio&lt;/b&gt;" style="html=1;dropTarget=0;whiteSpace=wrap;" vertex="1" parent="1">
          <mxGeometry x="580" y="250" width="180" height="90" as="geometry" />
        </mxCell>
        <mxCell id="AOp4CetzZRwFhSnmkwhI-6" value="" style="shape=module;jettyWidth=8;jettyHeight=4;" vertex="1" parent="AOp4CetzZRwFhSnmkwhI-5">
          <mxGeometry x="1" width="20" height="20" relative="1" as="geometry">
            <mxPoint x="-27" y="7" as="offset" />
          </mxGeometry>
        </mxCell>
        <mxCell id="AOp4CetzZRwFhSnmkwhI-7" value="&lt;b&gt;Hilt&lt;/b&gt;" style="html=1;dropTarget=0;whiteSpace=wrap;" vertex="1" parent="1">
          <mxGeometry x="100" y="450" width="180" height="90" as="geometry" />
        </mxCell>
        <mxCell id="AOp4CetzZRwFhSnmkwhI-8" value="" style="shape=module;jettyWidth=8;jettyHeight=4;" vertex="1" parent="AOp4CetzZRwFhSnmkwhI-7">
          <mxGeometry x="1" width="20" height="20" relative="1" as="geometry">
            <mxPoint x="-27" y="7" as="offset" />
          </mxGeometry>
        </mxCell>
        <mxCell id="AOp4CetzZRwFhSnmkwhI-9" value="&lt;b&gt;JetpackCompose&lt;/b&gt;" style="html=1;dropTarget=0;whiteSpace=wrap;" vertex="1" parent="1">
          <mxGeometry x="360" y="450" width="180" height="90" as="geometry" />
        </mxCell>
        <mxCell id="AOp4CetzZRwFhSnmkwhI-10" value="" style="shape=module;jettyWidth=8;jettyHeight=4;" vertex="1" parent="AOp4CetzZRwFhSnmkwhI-9">
          <mxGeometry x="1" width="20" height="20" relative="1" as="geometry">
            <mxPoint x="-27" y="7" as="offset" />
          </mxGeometry>
        </mxCell>
        <mxCell id="AOp4CetzZRwFhSnmkwhI-12" style="edgeStyle=orthogonalEdgeStyle;rounded=0;orthogonalLoop=1;jettySize=auto;html=1;entryX=0;entryY=0.5;entryDx=0;entryDy=0;endArrow=none;startFill=0;" edge="1" parent="1" source="AOp4CetzZRwFhSnmkwhI-11" target="AOp4CetzZRwFhSnmkwhI-5">
          <mxGeometry relative="1" as="geometry" />
        </mxCell>
        <mxCell id="AOp4CetzZRwFhSnmkwhI-13" style="edgeStyle=orthogonalEdgeStyle;rounded=0;orthogonalLoop=1;jettySize=auto;html=1;entryX=1;entryY=0.5;entryDx=0;entryDy=0;endArrow=none;startFill=0;" edge="1" parent="1" source="AOp4CetzZRwFhSnmkwhI-11" target="AOp4CetzZRwFhSnmkwhI-3">
          <mxGeometry relative="1" as="geometry">
            <mxPoint x="440" y="295" as="targetPoint" />
          </mxGeometry>
        </mxCell>
        <mxCell id="AOp4CetzZRwFhSnmkwhI-11" value="" style="shape=providedRequiredInterface;html=1;verticalLabelPosition=bottom;sketch=0;rotation=-180;" vertex="1" parent="1">
          <mxGeometry x="490" y="280" width="30" height="30" as="geometry" />
        </mxCell>
        <mxCell id="AOp4CetzZRwFhSnmkwhI-15" value="" style="shape=providedRequiredInterface;html=1;verticalLabelPosition=bottom;sketch=0;rotation=-90;" vertex="1" parent="1">
          <mxGeometry x="384" y="380" width="30" height="30" as="geometry" />
        </mxCell>
        <mxCell id="AOp4CetzZRwFhSnmkwhI-17" style="edgeStyle=orthogonalEdgeStyle;rounded=0;orthogonalLoop=1;jettySize=auto;html=1;exitX=0.25;exitY=0;exitDx=0;exitDy=0;entryX=0;entryY=0.5;entryDx=0;entryDy=0;entryPerimeter=0;endArrow=none;startFill=0;" edge="1" parent="1" source="AOp4CetzZRwFhSnmkwhI-9" target="AOp4CetzZRwFhSnmkwhI-15">
          <mxGeometry relative="1" as="geometry">
            <Array as="points">
              <mxPoint x="399" y="450" />
            </Array>
          </mxGeometry>
        </mxCell>
        <mxCell id="AOp4CetzZRwFhSnmkwhI-19" style="edgeStyle=orthogonalEdgeStyle;rounded=0;orthogonalLoop=1;jettySize=auto;html=1;entryX=0.918;entryY=1.009;entryDx=0;entryDy=0;entryPerimeter=0;endArrow=none;startFill=0;" edge="1" parent="1" source="AOp4CetzZRwFhSnmkwhI-15" target="AOp4CetzZRwFhSnmkwhI-3">
          <mxGeometry relative="1" as="geometry" />
        </mxCell>
      </root>
    </mxGraphModel>
  </diagram>
</mxfile>
